<?xml version="1.0" encoding="UTF-8" standalone="no"?>
<svg width="168px" height="112px" viewBox="0 0 168 112" version="1.1" xmlns="http://www.w3.org/2000/svg" xmlns:xlink="http://www.w3.org/1999/xlink">
    <!-- Generator: Sketch 40.3 (33839) - http://www.bohemiancoding.com/sketch -->
    <title>IMG/Award Logo 3x2/awwwards</title>
    <desc>Created with Sketch.</desc>
    <defs></defs>
    <g id="Logos" stroke="none" stroke-width="1" fill="none" fill-rule="evenodd">
        <g id="IMG/Award-Logo-3x2/awwwards" fill="#000000">
            <path d="M98.1128377,59.2774031 L92.9083979,59.2774031 L91.6598953,63.0812147 L88.8794136,63.0812147 L94.1019476,48.2486283 L96.9186178,48.2486283 L102.143832,63.0812147 L99.3640209,63.0812147 L98.1128377,59.2774031 Z M95.4998953,50.8193508 C95.4998953,50.8193508 95.1648168,52.2829738 94.8746387,53.1179895 L93.5604607,57.0839791 L97.4426806,57.0839791 L96.125822,53.1179895 C95.8537382,52.2802932 95.5421152,50.8193508 95.5421152,50.8193508 L95.4998953,50.8193508 Z M106.133277,48.2513089 L110.916188,48.2513089 C112.525906,48.2513089 113.256377,48.3766283 113.900398,48.6728377 C115.387476,49.3376335 116.324356,50.7617173 116.324356,52.7225969 C116.324356,54.4998534 115.384796,56.1464293 113.819309,56.7803979 L113.819309,56.8219476 C113.819309,56.8219476 114.026387,57.0290262 114.321927,57.5524188 L117.371812,63.0865759 L114.364147,63.0865759 L111.418806,57.5524188 L108.824628,57.5524188 L108.824628,63.0838953 L106.133277,63.0838953 L106.133277,48.2513089 Z M111.251267,55.2068691 C112.690764,55.2068691 113.588775,54.3510785 113.588775,52.8693613 C113.588775,51.4479581 112.984293,50.5707225 110.874639,50.5707225 L108.827309,50.5707225 L108.827309,55.2095497 L111.251267,55.2068691 Z M121.968419,48.2513089 L127.026094,48.2513089 C131.599246,48.2513089 134.583455,50.9687958 134.583455,55.6438115 C134.583455,60.3275393 131.599246,63.0812147 127.026094,63.0812147 L121.968419,63.0812147 L121.968419,48.2513089 Z M126.87933,60.761801 C129.887665,60.761801 131.806325,58.9892356 131.806325,55.6438115 C131.806325,52.3479791 129.840084,50.5707225 126.87933,50.5707225 L124.66245,50.5707225 L124.66245,60.761801 L126.87933,60.761801 Z M139.413948,59.2774031 C139.413948,59.2774031 141.020984,60.8455707 143.109864,60.8455707 C144.238408,60.8455707 145.261738,60.2618639 145.261738,59.0522304 C145.261738,56.3950576 138.264628,56.853445 138.264628,52.3037487 C138.264628,49.8348901 140.395058,48 143.235853,48 C146.159749,48 147.662241,49.5862618 147.662241,49.5862618 L146.492147,51.7830366 C146.492147,51.7830366 145.068063,50.4869529 143.209717,50.4869529 C141.960545,50.4869529 140.976754,51.2201047 140.976754,52.2642094 C140.976754,54.8979267 147.950408,54.2485445 147.950408,58.9919162 C147.950408,61.3535497 146.154387,63.3352042 143.062953,63.3352042 C139.76444,63.3352042 137.947644,61.3113298 137.947644,61.3113298 L139.413948,59.2774031 Z M67.7145131,48.2513089 L65.2697801,58.5127539 C65.081466,59.3484398 65.0184712,60.0762304 65.0184712,60.0762304 L64.9762513,60.0762304 C64.9554764,60.0762304 64.9347016,59.366534 64.7041675,58.5127539 L62.0731309,48.2513089 L59.735623,48.2513089 L57.0630366,58.5127539 C56.829822,59.3638534 56.8117277,60.0762304 56.7902827,60.0762304 L56.748733,60.0762304 C56.748733,60.0762304 56.6830576,59.3457592 56.5001047,58.5127539 L54.7489843,50.8300733 L53.4321257,56.4292356 L55.0967958,63.0812147 L58.2096754,63.0812147 L60.4868691,54.3088586 C60.738178,53.3478534 60.8641675,52.3667435 60.8641675,52.3667435 L60.9030366,52.3667435 C60.9030366,52.3667435 61.0290262,53.3478534 61.2803351,54.3088586 L63.5602094,63.0812147 L66.6704084,63.0812147 L70.4976754,48.2486283 L67.7145131,48.2513089 Z M84.4476649,48.2513089 L82.0029319,58.5127539 C81.8139476,59.3484398 81.751623,60.0762304 81.751623,60.0762304 L81.7067225,60.0762304 C81.6886283,60.0762304 81.6698639,59.366534 81.44,58.5127539 L78.8062827,48.2513089 L76.4687749,48.2513089 L73.7955183,58.5127539 C73.5629738,59.3638534 73.5442094,60.0762304 73.5234346,60.0762304 L73.4818848,60.0762304 C73.4818848,60.0762304 73.4188901,59.3457592 73.2305759,58.5127539 L71.468733,50.7932147 L70.154555,56.3950576 L71.8326283,63.0812147 L74.9421571,63.0812147 L77.2173403,54.3115393 C77.4686492,53.3478534 77.5966492,52.3694241 77.5966492,52.3694241 L77.6388691,52.3694241 C77.6388691,52.3694241 77.7641885,53.3478534 78.0128168,54.3115393 L80.2933613,63.0812147 L83.4028901,63.0812147 L87.2301571,48.2513089 L84.4476649,48.2513089 Z M29.2327539,59.2774031 L24.0316649,59.2774031 L22.7798115,63.0812147 L20,63.0812147 L25.222534,48.2513089 L28.0445654,48.2513089 L33.2644188,63.0812147 L30.4866178,63.0812147 L29.2327539,59.2774031 Z M26.6231623,50.8193508 C26.6231623,50.8193508 26.2880838,52.2829738 25.994555,53.1179895 L24.680377,57.0839791 L28.5652775,57.0839791 L27.2457382,53.1179895 C26.9763351,52.2829738 26.6620314,50.8193508 26.6620314,50.8193508 L26.6231623,50.8193508 Z M47.9710157,58.5107435 C48.2015497,59.3638534 48.2223246,60.0762304 48.241089,60.0762304 L48.2853194,60.0762304 C48.2853194,60.0762304 48.3483141,59.3430785 48.5339476,58.5107435 L50.9793508,48.2486283 L53.7564817,48.2486283 L49.9345759,63.0812147 L46.8216963,63.0812147 L44.5471832,54.3088586 C44.2958743,53.3478534 44.1672042,52.3667435 44.1672042,52.3667435 L44.1283351,52.3667435 C44.1283351,52.3667435 44.0023455,53.3478534 43.7510366,54.3088586 L41.4738429,63.0812147 L38.3609634,63.0812147 L34.6442723,48.2513089 L37.4214031,48.2513089 L39.7615916,58.5127539 C39.9505759,59.3484398 40.0129005,60.0762304 40.0129005,60.0762304 L40.0551204,60.0762304 C40.0785759,60.0762304 40.0939895,59.366534 40.3272042,58.5127539 L42.9997906,48.2513089 L45.335288,48.2513089 L47.9710157,58.5107435 Z" id="path"></path>
        </g>
    </g>
</svg>