<?xml version="1.0" encoding="UTF-8" standalone="no"?>
<svg width="168px" height="112px" viewBox="0 0 168 112" version="1.1" xmlns="http://www.w3.org/2000/svg" xmlns:xlink="http://www.w3.org/1999/xlink">
    <!-- Generator: Sketch 40.3 (33839) - http://www.bohemiancoding.com/sketch -->
    <title>IMG/Award Logo 3x2/commarts</title>
    <desc>Created with Sketch.</desc>
    <defs></defs>
    <g id="Logos" stroke="none" stroke-width="1" fill="none" fill-rule="evenodd">
        <g id="IMG/Award-Logo-3x2/commarts" fill="#000000">
            <path d="M79.5406294,63.4144169 C79.540935,63.3240342 79.5410874,63.233393 79.5410874,63.1424937 L79.5124743,59.9601544 L74.1995655,59.9528902 L74.1750224,63.1181155 C74.1263061,76.4611138 71.0286921,79.7723621 66.5654195,79.7014437 C61.857949,79.6265854 60.1747098,75.7807406 59.2970771,72.5654045 C58.3316319,69.3500684 58.3622183,62.5213422 58.3622183,53.7323876 C58.3622183,46.0152117 59.0023129,39.4381473 60.1431367,36.3299275 C61.3718964,33.3287009 64.8032476,31.5540176 67.6919367,31.3464336 C71.549031,31.0691624 75.1177744,33.6170531 75.8409951,37.5934075 C75.8588782,37.6917821 76.0875363,38.2143127 76.0795197,39.2535871 C76.0703931,40.4257104 75.9062378,40.3604556 75.9386742,40.4154912 C75.7375193,40.0740734 75.4344918,39.5740742 75.3226294,39.3597184 C74.8580366,38.4696681 74.7845306,38.3618131 74.5055529,38.0581937 C73.4246686,36.8818843 71.7548726,36.7572846 71.4404986,36.7572846 C70.0363604,36.7572846 68.7274347,36.9856763 67.6321206,38.287201 C66.5074533,39.6236924 66.2305723,40.6787265 66.3487247,42.8792894 C66.5715861,47.0248137 69.9856708,48.610135 71.3763658,48.7315335 C73.2104404,48.8917155 74.7467909,48.3684462 75.5564674,47.6948447 C77.4531949,46.1170337 77.8472416,44.9297664 78.8514131,42.0338093 C79.0918448,41.3404273 79.2581815,40.6534469 79.3577434,39.9767619 C79.4946932,42.504826 80.2181108,44.5788494 81.8422214,46.1427663 C83.4988208,47.7379374 84.6106615,48.4147401 86.7325937,48.4634965 C88.5751783,48.5057274 89.8337844,47.9224976 91.2381693,46.4220074 C92.5544949,44.9215173 92.9815946,43.5663113 92.9126519,41.5311014 C92.8556724,39.8475286 92.027126,38.6360062 91.9131669,38.4724999 C91.784408,38.2875704 91.349415,37.6683889 90.7515,37.2838783 C89.7373385,36.6315769 88.5601317,36.2553155 87.0803908,36.5508087 C84.6640644,37.0333246 83.8379847,38.3594737 83.2500596,39.8804022 C83.2779327,39.8082526 83.0191815,38.9763159 83.1109408,38.1102744 C83.2673261,36.6350243 84.5565186,33.5579545 87.8978373,32.2309435 L88.2028381,32.1213647 C94.0808554,30.1857607 97.7430847,32.7620926 99.1472229,34.3698222 C100.551608,35.9775518 101.278282,38.1288659 101.278282,40.7012578 C101.278282,45.0957352 98.4612487,49.3681984 93.5465799,52.0477067 L87.0342645,56.0165506 C83.652359,58.0459474 81.0732984,60.3677026 79.5406294,63.4144169 Z M78.0539242,75.679413 C76.0428203,82.2351405 71.8458516,85.5821544 64.5902527,85.2045132 C53.3216272,84.6180822 47.8581297,76.0715552 48.0027985,55.5150739 C48.0691513,46.0832983 48.9557872,38.7694706 52.19955,33.4127934 C55.3510602,28.2090339 60.309512,26.108323 66.1019367,26.108323 C70.4022873,26.108323 73.6153404,27.704356 76.2482383,30.4911037 C77.9784469,32.3928062 79.2261681,34.8551844 79.4397992,37.5848426 C79.8744012,34.2458695 81.654062,31.5879132 84.3019608,29.2982959 C87.5527535,26.48717 91.3465784,26.0247231 96.2491606,26.0003449 C101.964626,25.9719037 105.842687,27.7007855 108.929571,31.840523 C109.86036,33.0888589 110.324213,34.3096154 110.900791,35.9244861 C111.37747,37.2602388 111.495746,39.3818804 111.495746,42.8116954 L111.398067,71.8351668 C111.398067,74.9433865 110.711969,79.4364847 113.587832,79.4491663 C114.553154,79.4533525 116.398698,79.5368293 116.331112,75.0336351 L116.313722,65.9653162 L120.148863,65.9586676 L120.20757,71.5636823 C120.20757,79.495214 119.380873,85.1239913 110.547444,85.2303689 C106.121788,85.2835577 102.510371,83.3728244 101.193922,77.9064452 C98.1222082,83.3728244 94.5422416,85.261765 89.9785765,85.261765 C86.4680459,85.261765 82.3209974,83.5069044 80.0391032,80.8275193 C78.8170922,79.3924325 78.2773377,77.6312596 78.0539242,75.679413 Z M100.973528,52.1133308 C97.1180366,56.0941175 92.7200068,60.0454781 91.1221136,61.801693 C89.4805607,63.6058025 87.6940923,66.8979668 87.3691117,69.0166535 C86.0937324,77.3292484 89.7940714,79.4459651 92.426846,79.4513825 C99.5808593,79.4659109 101.266689,70.3484663 101.149523,62.1234113 L100.973528,52.1133308 Z" id="path"></path>
        </g>
    </g>
</svg>