<?xml version="1.0" encoding="UTF-8" standalone="no"?>
<svg width="168px" height="112px" viewBox="0 0 168 112" version="1.1" xmlns="http://www.w3.org/2000/svg" xmlns:xlink="http://www.w3.org/1999/xlink">
    <!-- Generator: Sketch 40.3 (33839) - http://www.bohemiancoding.com/sketch -->
    <title>IMG/Award Logo 3x2/webby</title>
    <desc>Created with Sketch.</desc>
    <defs></defs>
    <g id="Logos" stroke="none" stroke-width="1" fill="none" fill-rule="evenodd">
        <g id="IMG/Award-Logo-3x2/webby" fill="#000000">
            <path d="M25,58.8551196 L25,64.0855978 C65.4720761,61.6787826 35.3730978,60.4285598 25,58.8551196 Z M25,67.4974011 L25,72.6336076 L25.338288,72.7179391 C56.1715598,69.8721511 47.3212391,68.835162 25,67.4974011 Z M25,22 L25,38.88875 C50.3757717,38.0310054 50.5011467,36.5925598 37.3412609,34.8485326 L39.7083152,31.9745272 C55.9557609,34.4679185 54.9255054,38.5517446 43.2585761,40.5968641 C47.168288,41.9715 61.0252717,44.5190815 44.2727989,49.5568478 C46.9989837,50.2975543 62.3726522,54.1030543 43.2585761,57.5026087 C46.2871359,58.8701902 62.355337,60.8316196 43.9348315,65.7866576 C48.7045326,66.5703315 60.9611413,69.1830054 44.7803913,74.4086739 C50.8977935,75.0486957 51.5894402,75.2609674 53.2331033,78.1279185 L53.2331033,89.1166685 L60.6715924,89.1166685 L60.6715924,22 L25,22 Z M25,50.9092625 L25,56.1503223 C32.6129239,54.6528766 67.362,54.0452408 25,50.9092625 Z M25,41.9772076 L25,47.528338 C48.7895054,46.2486152 56.8269728,44.5911641 25,41.9772076 Z M69.4082739,39.8968804 L65.3494587,39.8968804 L65.3494587,39.0987772 L74.3315674,39.0987772 L74.3315674,39.8968804 L70.2737141,39.8968804 L70.2737141,50.7422989 L69.4082739,50.7422989 L69.4082739,39.8968804 Z M76.5277462,39.098681 L77.3928658,39.098681 L77.3928658,44.4882027 L84.8448223,44.4882027 L84.8448223,39.098681 L85.7099418,39.098681 L85.7099418,50.7422027 L84.8448223,50.7422027 L84.8448223,45.2859853 L77.3928658,45.2859853 L77.3928658,50.7422027 L76.5277462,50.7422027 L76.5277462,39.098681 Z M88.7371228,39.098681 L97.0205304,39.098681 L97.0205304,39.8967842 L89.6022424,39.8967842 L89.6022424,44.4712082 L96.2721283,44.4712082 L96.2721283,45.2699527 L89.6022424,45.2699527 L89.6022424,49.9440995 L97.1042207,49.9440995 L97.1042207,50.7422027 L88.7371228,50.7422027 L88.7371228,39.098681 Z M65.9515473,57.4347266 L69.815406,57.4347266 L72.1157647,65.0691342 L74.660781,57.3978516 L77.808944,57.3978516 L80.3526777,65.0691342 L82.6530364,57.4347266 L86.4421832,57.4347266 L82.0312918,70.724156 L78.8452918,70.724156 L76.2060038,63.1282266 L73.5484386,70.724156 L70.3624386,70.724156 L65.9515473,57.4347266 Z M86.4420228,63.9230272 L86.4420228,63.8726848 C86.4420228,59.9071793 89.278512,56.7695978 93.2950011,56.7695978 C97.9640174,56.7695978 100.122007,60.2085924 100.122007,64.1991087 C100.122007,64.5005217 100.122007,64.8516359 100.097316,65.1787011 L91.0109957,65.1787011 C91.3871207,66.6591522 92.4667565,67.4120435 93.9472076,67.4120435 C95.1025174,67.4120435 95.9807837,66.9855761 96.9600554,66.0316359 L99.5948543,68.2152772 C98.2901207,69.8714457 96.4075717,70.9760924 93.7217891,70.9760924 C89.4551913,70.9760924 86.4420228,68.1152337 86.4420228,63.9230272 Z M95.6787293,62.7436685 C95.5033326,61.2369239 94.6003761,60.2829837 93.2950011,60.2829837 C92.0390065,60.2829837 91.186713,61.2369239 90.9353217,62.7436685 L95.6787293,62.7436685 Z M102.715698,57.434887 L109.483383,57.434887 C111.142437,57.434887 112.310893,57.8491696 113.083986,58.6039848 C113.611459,59.1500554 113.932111,59.8477946 113.932111,60.752675 L113.932111,60.7901913 C113.932111,62.317137 113.064747,63.2220174 111.89597,63.731213 C113.49891,64.2586859 114.51698,65.1635663 114.51698,66.9547293 L114.51698,66.9916043 C114.51698,69.2544467 112.669383,70.6303652 109.52122,70.6303652 L102.715698,70.6303652 L102.715698,57.434887 Z M109.068459,65.2575174 L106.278785,65.2575174 L106.278785,67.6893435 L109.106296,67.6893435 C110.237236,67.6893435 110.859942,67.2558217 110.859942,66.48305 L110.859942,66.4455337 C110.859942,65.7291967 110.29335,65.2575174 109.068459,65.2575174 Z M110.331508,61.5068489 C110.331508,60.7715935 109.7476,60.375588 108.673415,60.375588 L106.278785,60.375588 L106.278785,62.6942239 L108.579143,62.6942239 C109.691165,62.6942239 110.331508,62.317137 110.331508,61.5443652 L110.331508,61.5068489 Z M117.33609,57.434887 L124.103454,57.434887 C125.762509,57.434887 126.930965,57.8491696 127.704058,58.6039848 C128.23153,59.1500554 128.552183,59.8477946 128.552183,60.752675 L128.552183,60.7901913 C128.552183,62.317137 127.684818,63.2220174 126.516041,63.731213 C128.118982,64.2586859 129.13577,65.1635663 129.13577,66.9547293 L129.13577,66.9916043 C129.13577,69.2544467 127.289454,70.6303652 124.141291,70.6303652 L117.33609,70.6303652 L117.33609,57.434887 Z M123.68853,65.2575174 L120.898857,65.2575174 L120.898857,67.6893435 L123.726367,67.6893435 C124.857308,67.6893435 125.479693,67.2558217 125.479693,66.48305 L125.479693,66.4455337 C125.479693,65.7291967 124.914384,65.2575174 123.68853,65.2575174 Z M124.951579,61.5068489 C124.951579,60.7715935 124.367672,60.375588 123.293487,60.375588 L120.898857,60.375588 L120.898857,62.6942239 L123.199215,62.6942239 C124.310275,62.6942239 124.951579,62.317137 124.951579,61.5443652 L124.951579,61.5068489 Z M134.168886,65.6915201 L129.13593,57.4347266 L133.302484,57.4347266 L136.016484,62.2413027 L138.749723,57.4347266 L142.841245,57.4347266 L137.824963,65.6350853 L137.824963,70.6302049 L134.168886,70.6302049 L134.168886,65.6915201 Z M71.9218342,76.2692261 L72.753606,76.2692261 L78.1758342,87.9961174 L77.2283071,87.9961174 L75.7481766,84.7357261 L68.8775625,84.7357261 L67.3974321,87.9961174 L66.499606,87.9961174 L71.9218342,76.2692261 Z M75.3819918,83.9536554 L72.3216875,77.2173946 L69.2437473,83.9536554 L75.3819918,83.9536554 Z M78.1087859,76.3525957 L79.0736283,76.3525957 L82.7329109,86.7154326 L86.1433674,76.3186065 L86.8080793,76.3186065 L90.2185359,86.7154326 L93.8778185,76.3525957 L94.7756446,76.3525957 L90.5510522,88.079487 L89.8523511,88.079487 L86.4422152,77.9657967 L83.0320793,88.079487 L82.3333783,88.079487 L78.1087859,76.3525957 Z M100.413704,76.278012 L101.245476,76.278012 L106.667704,88.004262 L105.720177,88.004262 L104.239726,84.744512 L97.3694321,84.744512 L95.888981,88.004262 L94.9911549,88.004262 L100.413704,76.278012 Z M103.873541,83.9624413 L100.813236,77.2261804 L97.7352962,83.9624413 L103.873541,83.9624413 Z M108.669054,76.3525957 L113.559641,76.3525957 C114.990071,76.3525957 116.138326,76.8015087 116.836707,77.4998891 C117.385663,78.0491663 117.718179,78.8305957 117.718179,79.6623674 L117.718179,79.6957152 C117.718179,81.6414326 116.271397,82.7569815 114.308043,83.0224815 L118.150418,87.9961174 L117.052185,87.9961174 L113.343201,83.1725467 L109.534174,83.1725467 L109.534174,87.9961174 L108.669054,87.9961174 L108.669054,76.3525957 Z M113.459918,82.3904761 C115.405957,82.3904761 116.852739,81.4089598 116.852739,79.7293837 L116.852739,79.6957152 C116.852739,78.1325359 115.622717,77.1503783 113.50962,77.1503783 L109.534174,77.1503783 L109.534174,82.3904761 L113.459918,82.3904761 Z M120.291381,76.3526598 L124.167424,76.3526598 C127.826707,76.3526598 130.355049,78.8640076 130.355049,82.1410728 L130.355049,82.1737793 C130.355049,85.4511652 127.826707,87.9961815 124.167424,87.9961815 L120.291381,87.9961815 L120.291381,76.3526598 Z M121.156501,77.1504424 L121.156501,87.1977576 L124.167424,87.1977576 C127.410821,87.1977576 129.456582,84.9852576 129.456582,82.2074478 L129.456582,82.1737793 C129.456582,79.4132848 127.410821,77.1504424 124.167424,77.1504424 L121.156501,77.1504424 Z M131.950967,86.2997071 L132.516598,85.6510277 C133.798565,86.8319897 134.978886,87.3806255 136.69213,87.3806255 C138.437761,87.3806255 139.635717,86.3994299 139.635717,85.069044 L139.635717,85.0353755 C139.635717,83.8047125 138.988,83.0893375 136.343582,82.5570549 C133.549418,81.9914245 132.416554,81.043256 132.416554,79.279669 L132.416554,79.2466418 C132.416554,77.5167234 133.998011,76.1866582 136.159527,76.1866582 C137.85738,76.1866582 138.971005,76.6519245 140.151326,77.6000929 L139.603332,78.2821201 C138.505098,77.3339516 137.407185,76.9674462 136.126821,76.9674462 C134.413897,76.9674462 133.282957,77.9496038 133.282957,79.1632723 L133.282957,79.1972614 C133.282957,80.4279245 133.915603,81.176006 136.674815,81.7416364 C139.369255,82.2902723 140.50212,83.2554353 140.50212,84.952006 L140.50212,84.9850332 C140.50212,86.8646962 138.888598,88.1623755 136.642429,88.1623755 C134.779761,88.1623755 133.348049,87.5473647 131.950967,86.2997071 Z" id="path"></path>
        </g>
    </g>
</svg>