<?xml version="1.0" encoding="UTF-8" standalone="no"?>
<svg width="168px" height="112px" viewBox="0 0 168 112" version="1.1" xmlns="http://www.w3.org/2000/svg" xmlns:xlink="http://www.w3.org/1999/xlink">
    <!-- Generator: Sketch 40.3 (33839) - http://www.bohemiancoding.com/sketch -->
    <title>IMG/Award Logo 3x2/fwa</title>
    <desc>Created with Sketch.</desc>
    <defs></defs>
    <g id="Logos" stroke="none" stroke-width="1" fill="none" fill-rule="evenodd">
        <g id="IMG/Award-Logo-3x2/fwa" fill="#000000">
            <path d="M123.376615,39 L100.954414,39 C99.3261065,39 97.7372308,39.5414438 96.448568,40.5298935 C95.5714556,41.1531834 94.8321893,41.9683314 94.3010178,42.9021065 L94.2725207,42.952142 L94.2453491,43.0025089 L91.144142,48.755929 C91.144142,48.755929 87.5442367,41.708213 86.499787,40.8489941 C85.1541302,39.6879053 83.4439763,39.0506982 81.6629112,39.0506982 C80.5621302,39.0506982 79.4540592,39.3035266 78.4589822,39.7823432 C76.5301302,40.7098225 75.4631479,42.4097041 74.5532308,44.411787 L72.2121657,48.7555976 L69.3707456,43.1781302 C68.6255148,41.6671243 67.3815858,40.452355 65.8526864,39.7419172 C64.8499882,39.256142 63.7376095,39 62.6272189,39 L44.5127101,39 C43.2820355,39 42.0613018,39.3098225 40.9820592,39.896 C38.5949349,41.1926154 37.112426,43.6847811 37.112426,46.400284 L37.112426,48.3331124 L35.400284,48.3331124 C31.319574,48.3331124 28,51.6530178 28,55.7333964 C28,59.8141065 31.319574,63.1336805 35.400284,63.1336805 L37.112426,63.1336805 L37.112426,64.8461538 C37.112426,68.9268639 40.432,72.2464379 44.5127101,72.2464379 C48.5930888,72.2464379 51.9129941,68.9268639 51.9129941,64.8461538 L51.9129941,63.1336805 L58.4852071,63.1336805 C59.9077396,63.1336805 61.2374911,62.7307456 62.3664379,62.0322367 L65.2641893,67.7193846 C65.4089941,68.0447811 65.5783195,68.360568 65.7695148,68.6627692 C67.1055621,70.8593609 69.5158817,72.2179408 72.0932071,72.2179408 C73.1943195,72.2179408 74.3020592,71.9651124 75.2971361,71.4862959 C77.1023905,70.6184615 78.6703905,69.1535148 79.4709586,67.2760237 L81.5757633,62.5756686 L84.1974911,67.7213728 C84.3416331,68.0447811 84.5099645,68.3589112 84.7001657,68.659787 C86.0358817,70.8583669 88.4465325,72.2179408 91.0251834,72.2179408 C92.1262959,72.2179408 93.2340355,71.9651124 94.2291124,71.4866272 C95.9210414,70.6734675 97.236213,69.2337041 97.9131834,67.504 C99.0186036,70.2022722 101.673799,72.1075976 104.765065,72.1075976 L123.376615,72.112568 C127.456994,72.112568 130.776899,68.9268639 130.776899,64.8461538 L130.776899,63.1336805 L132.489041,63.1336805 C136.56942,63.1336805 139.889325,59.8141065 139.889325,55.7333964 C139.889325,51.6530178 136.56942,48.3331124 132.489041,48.3331124 L130.776899,48.3331124 L130.776899,46.400284 C130.776899,43.6851124 129.294059,41.1926154 126.907266,39.896 C125.827692,39.3098225 124.60729,39 123.376615,39 L123.376615,39 Z M107.084592,62.2771124 L120.946746,62.2771124 L120.946746,58.1635976 L107.084592,58.1635976 L107.084592,62.2771124 Z M123.376615,43.9704142 C123.796118,43.9704142 124.190438,44.0767811 124.534722,44.2636686 C125.292213,44.6752189 125.806485,45.4777751 125.806485,46.400284 L125.806485,46.400284 L125.806485,53.3035266 L132.489041,53.3035266 C133.831053,53.3035266 134.918911,54.391716 134.918911,55.7333964 C134.918911,57.0757396 133.831053,58.1635976 132.489041,58.1635976 L125.806485,58.1635976 L125.806485,64.7146036 C125.806485,66.0566154 124.718627,67.1444734 123.376615,67.1444734 C123.094296,67.1444734 104.765065,67.1371834 104.765065,67.1371834 C103.422722,67.1371834 102.334864,66.0489941 102.334864,64.7069822 L102.334864,55.6230533 L102.340497,55.6230533 C102.398485,54.3327337 103.460166,53.3035266 104.765065,53.3035266 L120.946746,53.3035266 L120.946746,48.8301538 L102.269586,48.8301538 L93.4053491,65.2782485 C93.263858,66.0062485 92.7949822,66.6613491 92.0749349,67.0072899 C91.7359527,67.1703195 91.3780828,67.2475266 91.0251834,67.2475266 C90.1825325,67.2475266 89.3713609,66.8058225 88.9260118,66.0420355 C88.836213,65.9051834 88.76,65.7603787 88.7000237,65.6099408 L81.6996923,51.8690651 L74.6175148,65.303432 C74.3110059,66.0231479 73.8626746,66.6610178 73.1426272,67.0072899 C72.803645,67.1703195 72.4457751,67.2475266 72.0932071,67.2475266 C71.2502249,67.2475266 70.4393846,66.8061538 69.9937041,66.0423669 C69.903574,65.9051834 69.8273609,65.7600473 69.7670533,65.6089467 L61.2192663,48.8301538 L46.9425799,48.8301538 L46.9425799,53.3035266 L58.4852071,53.3035266 C59.8272189,53.3035266 60.9150769,54.391716 60.9150769,55.7333964 C60.9150769,57.0757396 59.8272189,58.1635976 58.4852071,58.1635976 L46.9425799,58.1635976 L46.9425799,64.8461538 C46.9425799,66.1881657 45.8547219,67.2760237 44.5127101,67.2760237 C43.1706982,67.2760237 42.0828402,66.1881657 42.0828402,64.8461538 L42.0828402,58.1635976 L35.400284,58.1635976 C34.0582722,58.1635976 32.9704142,57.0757396 32.9704142,55.7333964 C32.9704142,54.391716 34.0582722,53.3035266 35.400284,53.3035266 L42.0828402,53.3035266 L42.0828402,46.400284 L42.0828402,46.400284 C42.0828402,45.4777751 42.5967811,44.6752189 43.3542722,44.2636686 C43.6985562,44.0767811 44.0932071,43.9704142 44.5127101,43.9704142 L62.6272189,43.9704142 C63.0212071,43.9704142 63.3923314,44.0661775 63.7213728,44.2328521 C64.2296805,44.4588402 64.6640947,44.8581302 64.9238817,45.3985799 L72.0882367,59.4625325 L79.2754556,46.0308166 C79.6369704,45.2955266 79.8371124,44.6347929 80.6134911,44.2613491 C80.9524734,44.0983195 81.3103432,44.0211124 81.6629112,44.0211124 C82.264,44.0211124 82.8488521,44.2457751 83.2971834,44.6513609 C83.7398817,44.9976331 83.9446627,45.2319053 84.2485207,45.820071 L91.0205444,59.4625325 L98.6206391,45.3608047 C98.8184615,45.0132071 99.0898462,44.7348639 99.4026509,44.5304142 C99.8238107,44.1808284 100.364592,43.9704142 100.954414,43.9704142 L123.376615,43.9704142 L123.376615,43.9704142 Z" id="path"></path>
        </g>
    </g>
</svg>