<?xml version="1.0" encoding="UTF-8" standalone="no"?>
<svg width="168px" height="112px" viewBox="0 0 168 112" version="1.1" xmlns="http://www.w3.org/2000/svg" xmlns:xlink="http://www.w3.org/1999/xlink">
    <!-- Generator: Sketch 40.3 (33839) - http://www.bohemiancoding.com/sketch -->
    <title>IMG/Award Logo 3x2/oneshow</title>
    <desc>Created with Sketch.</desc>
    <defs></defs>
    <g id="Logos" stroke="none" stroke-width="1" fill="none" fill-rule="evenodd">
        <g id="IMG/Award-Logo-3x2/oneshow" fill="#221F20">
            <path d="M112.622806,23 L89.4871101,23 C89.0555648,23 88.4543088,23.2495841 88.1493523,23.5543773 L64.1154472,47.587629 L65.0915693,47.587629 C68.1881765,47.587629 70.2341782,49.5501638 70.2341782,52.4814705 L70.2341782,60.6661308 C70.2341782,63.5956407 68.1881765,65.5602989 65.0915693,65.5602989 L63.7368241,65.5602989 C60.6122858,65.5602989 58.5937253,63.5956407 58.5937253,60.6661308 L58.5937253,53.1090243 L47.1037088,64.5990407 C46.799079,64.9036705 46.5499849,65.5060699 46.5499849,65.9366352 L46.5501482,89.0729848 C46.5501482,89.5040401 46.9026368,89.856202 47.3338554,89.856202 L70.4693884,89.856202 C70.9002803,89.856202 71.5021897,89.6064546 71.8069828,89.3019881 L95.8253706,65.2829469 L88.8388121,65.2829469 C88.6465604,65.2829469 88.5635835,65.2009501 88.5635835,65.0067383 L88.5635835,48.1400462 C88.5635835,47.9469779 88.6465604,47.8636743 88.8388121,47.8636743 L98.6001972,47.8636743 C98.7654976,47.8636743 98.8759157,47.9469779 98.8759157,48.1400462 L98.8759157,50.4901878 C98.8759157,50.6842362 98.7934289,50.7668864 98.6001972,50.7668864 L92.0192128,50.7668864 C91.8254911,50.7668864 91.7425142,50.8500267 91.7425142,51.0439117 L91.7425142,54.7211939 C91.7425142,54.9149156 91.8254911,54.9975659 92.0192128,54.9975659 L97.4105891,54.9975659 C97.6048008,54.9975659 97.6876144,55.0807061 97.6876144,55.2742645 L97.6876144,57.6248961 C97.6876144,57.8174744 97.6048008,57.9004513 97.4105891,57.9004513 L92.0192128,57.9004513 C91.8254911,57.9004513 91.7425142,57.9834282 91.7425142,58.1769866 L91.7425142,62.1031995 C91.7425142,62.2967579 91.8254911,62.3797348 92.0192128,62.3797348 L98.6001972,62.3797348 C98.6413589,62.3797348 98.6794173,62.3849617 98.712902,62.3962322 L112.85132,48.256998 C113.156439,47.9520414 113.40586,47.3502954 113.40586,46.9195668 L113.406187,23.7835439 C113.406187,23.3528152 113.053862,23 112.622806,23 M84.8307656,65.0067383 C84.8307656,65.2009501 84.747952,65.2829469 84.5540669,65.2829469 L82.2591344,65.2829469 L82.0102037,65.1455777 L76.3421288,54.0301007 L76.4803148,65.0067383 C76.4803148,65.2009501 76.3976645,65.2829469 76.2041062,65.2829469 L73.6326384,65.2829469 C73.43908,65.2829469 73.3559398,65.2009501 73.3559398,65.0067383 L73.3559398,48.1400462 C73.3559398,47.9469779 73.43908,47.8636743 73.6326384,47.8636743 L75.9550121,47.8636743 L76.2041062,48.0025136 L81.8450666,59.227592 L81.7339951,48.1400462 C81.7339951,47.9469779 81.816972,47.8636743 82.0102037,47.8636743 L84.5540669,47.8636743 C84.7200208,47.8636743 84.8307656,47.9469779 84.8307656,48.1400462 L84.8307656,65.0067383 Z M61.7459335,60.6660981 C61.7459335,61.7714225 62.6307484,62.6568908 63.7368895,62.6568908 L65.0914713,62.6568908 C66.1974491,62.6568908 67.0548228,61.7990271 67.0548228,60.6660981 L67.0548228,52.4814378 C67.0548228,51.3476922 66.1974491,50.4903185 65.0914713,50.4903185 L63.7368895,50.4903185 C62.6307484,50.4903185 61.7459335,51.37546 61.7459335,52.4814378 L61.7459335,60.6660981 Z M43.1981747,48.8038126 L41.9340834,48.8038126 C41.8529033,48.8038126 41.8181118,48.8386041 41.8181118,48.9197843 L41.8181118,54.7761906 C41.8181118,54.8573708 41.7833203,54.8921623 41.7021401,54.8921623 L40.6120063,54.8921623 C40.5309895,54.8921623 40.4960346,54.8573708 40.4960346,54.7761906 L40.4960346,48.9197843 C40.4960346,48.8386041 40.4612431,48.8038126 40.380063,48.8038126 L39.1159717,48.8038126 C39.0347915,48.8038126 39,48.7690211 39,48.6878409 L39,47.7020816 C39,47.6209015 39.0347915,47.58611 39.1159717,47.58611 L43.1981747,47.58611 C43.2677577,47.58611 43.3141464,47.6209015 43.3141464,47.7020816 L43.3141464,48.6878409 C43.3141464,48.7690211 43.2793549,48.8038126 43.1981747,48.8038126 Z M49.1938451,54.8922276 L48.1037113,54.8922276 C48.0225312,54.8922276 47.9877397,54.8574361 47.9877397,54.776256 L47.9877397,51.9117555 C47.9877397,51.8305754 47.9529482,51.7959472 47.871768,51.7959472 L45.7146948,51.7959472 C45.6335146,51.7959472 45.5987231,51.8305754 45.5987231,51.9117555 L45.5987231,54.776256 C45.5987231,54.8574361 45.5639316,54.8922276 45.4827514,54.8922276 L44.3810205,54.8922276 C44.2998403,54.8922276 44.2650488,54.8574361 44.2650488,54.776256 L44.2650488,47.7019836 C44.2650488,47.6208035 44.2998403,47.5861753 44.3810205,47.5861753 L45.4827514,47.5861753 C45.5523344,47.5861753 45.5987231,47.6208035 45.5987231,47.7019836 L45.5987231,50.4621096 C45.5987231,50.5434531 45.6335146,50.5780812 45.7146948,50.5780812 L47.871768,50.5780812 C47.9529482,50.5780812 47.9877397,50.5434531 47.9877397,50.4621096 L47.9877397,47.7019836 C47.9877397,47.6208035 48.0225312,47.5861753 48.1037113,47.5861753 L49.1938451,47.5861753 C49.2750253,47.5861753 49.3098168,47.6208035 49.3098168,47.7019836 L49.3098168,54.776256 C49.3098168,54.8574361 49.2750253,54.8922276 49.1938451,54.8922276 Z M54.7951955,54.8922276 L50.7013953,54.8922276 C50.6202151,54.8922276 50.5854236,54.8574361 50.5854236,54.776256 L50.5854236,47.7019836 C50.5854236,47.6208035 50.6202151,47.5861753 50.7013953,47.5861753 L54.7951955,47.5861753 C54.8647785,47.5861753 54.9111671,47.6208035 54.9111671,47.7019836 L54.9111671,48.6879062 C54.9111671,48.7690864 54.8763756,48.8038779 54.7951955,48.8038779 L52.0350695,48.8038779 C51.9538894,48.8038779 51.9190979,48.8386694 51.9190979,48.9198496 L51.9190979,50.4621096 C51.9190979,50.5434531 51.9538894,50.5780812 52.0350695,50.5780812 L54.2965173,50.5780812 C54.3776974,50.5780812 54.4124889,50.6128727 54.4124889,50.6940529 L54.4124889,51.6798122 C54.4124889,51.7609924 54.3776974,51.7959472 54.2965173,51.7959472 L52.0350695,51.7959472 C51.9538894,51.7959472 51.9190979,51.8305754 51.9190979,51.9117555 L51.9190979,53.5585534 C51.9190979,53.6397335 51.9538894,53.674525 52.0350695,53.674525 L54.7951955,53.674525 C54.8647785,53.674525 54.9111671,53.7093165 54.9111671,53.7904967 L54.9111671,54.776256 C54.9111671,54.8574361 54.8763756,54.8922276 54.7951955,54.8922276 Z M105.701715,59.8782584 C105.701715,60.4233253 106.235184,60.5856856 107.046986,60.9569584 C108.287883,61.5250562 108.867741,62.1629005 108.867741,63.3111834 C108.867741,64.5403198 108.021148,65.3637188 106.710668,65.3637188 L106.246782,65.3637188 C105.585743,65.3637188 105.087065,65.1781641 104.73915,64.8186519 C104.356607,64.4243482 104.20568,64.0880303 104.20568,63.9720586 C104.20568,63.9488643 104.228874,63.9140728 104.275426,63.8908785 L105.284217,63.3922002 C105.307411,63.3806031 105.319008,63.3806031 105.342202,63.3806031 C105.423383,63.3806031 105.446577,63.4965748 105.562549,63.7285181 C105.690118,63.9720586 105.980047,64.1460161 106.246782,64.1460161 L106.710668,64.1460161 C107.162958,64.1460161 107.545664,63.7749068 107.545664,63.3111834 C107.545664,62.7311617 107.058583,62.5224127 106.304767,62.1629005 C105.029079,61.5484139 104.379638,61.026378 104.379638,59.8782584 C104.379638,58.649122 105.237828,57.8257231 106.536711,57.8257231 L106.710668,57.8257231 C107.244138,57.8257231 107.661636,57.9416947 108.032745,58.2082663 C108.485035,58.5331503 108.774801,59.0550228 108.774801,59.1940255 C108.774801,59.2405775 108.75177,59.2636085 108.705381,59.2869662 L107.696428,59.7856444 C107.673233,59.7972416 107.650039,59.7972416 107.638278,59.7972416 C107.580456,59.7972416 107.557262,59.7274952 107.487679,59.6231207 C107.267332,59.2520114 107.07018,59.0434257 106.710668,59.0434257 L106.536711,59.0434257 C106.084421,59.0434257 105.701715,59.4029379 105.701715,59.8782584 Z M114.677792,65.2477634 L113.587658,65.2477634 C113.506478,65.2477634 113.471686,65.2129719 113.471686,65.1317917 L113.471686,62.2672913 C113.471686,62.1861111 113.436732,62.1513196 113.355715,62.1513196 L111.198642,62.1513196 C111.117461,62.1513196 111.08267,62.1861111 111.08267,62.2672913 L111.08267,65.1317917 C111.08267,65.2129719 111.047878,65.2477634 110.966698,65.2477634 L109.864967,65.2477634 C109.783787,65.2477634 109.748996,65.2129719 109.748996,65.1317917 L109.748996,58.0575194 C109.748996,57.9763392 109.783787,57.9417111 109.864967,57.9417111 L110.966698,57.9417111 C111.036281,57.9417111 111.08267,57.9763392 111.08267,58.0575194 L111.08267,60.8176453 C111.08267,60.8988255 111.117461,60.933617 111.198642,60.933617 L113.355715,60.933617 C113.436732,60.933617 113.471686,60.8988255 113.471686,60.8176453 L113.471686,58.0575194 C113.471686,57.9763392 113.506478,57.9417111 113.587658,57.9417111 L114.677792,57.9417111 C114.758972,57.9417111 114.793764,57.9763392 114.793764,58.0575194 L114.793764,65.1317917 C114.793764,65.2129719 114.758972,65.2477634 114.677792,65.2477634 Z M118.632263,65.3637188 L118.064001,65.3637188 C116.753522,65.3637188 115.906928,64.5403198 115.906928,63.3111834 L115.906928,59.8782584 C115.906928,58.649122 116.765119,57.8257231 118.064001,57.8257231 L118.632263,57.8257231 C119.931145,57.8257231 120.789336,58.649122 120.789336,59.8782584 L120.789336,63.3111834 C120.789336,64.5403198 119.931145,65.3637188 118.632263,65.3637188 Z M119.455662,59.8782584 C119.455662,59.4029379 119.096313,59.0434257 118.632263,59.0434257 L118.064001,59.0434257 C117.600278,59.0434257 117.229005,59.4143717 117.229005,59.8782584 L117.229005,63.3111834 C117.229005,63.7749068 117.600278,64.1460161 118.064001,64.1460161 L118.632263,64.1460161 C119.096313,64.1460161 119.455662,63.7865039 119.455662,63.3111834 L119.455662,59.8782584 Z M127.457577,65.1549207 C127.446143,65.2129066 127.399591,65.2476981 127.341605,65.2476981 L126.495012,65.2476981 C126.425592,65.2476981 126.390801,65.2246671 126.37904,65.1665179 L125.207889,60.5742028 L124.048173,65.1665179 C124.036576,65.2246671 124.001784,65.2476981 123.932201,65.2476981 L123.085444,65.2476981 C123.027622,65.2476981 122.981233,65.2129066 122.969473,65.1549207 L121.438647,58.0806484 C121.438647,58.0692146 121.427213,58.0460202 121.427213,58.0344231 C121.427213,57.9764372 121.473601,57.9416457 121.554782,57.9416457 L122.737529,57.9416457 C122.795679,57.9416457 122.842067,57.9764372 122.853501,58.0344231 L123.700258,62.7544704 L124.801825,57.9996316 C124.813422,57.9416457 124.848214,57.9184514 124.917797,57.9184514 L125.497819,57.9184514 C125.567402,57.9184514 125.602193,57.9416457 125.61379,57.9996316 L126.715358,62.7544704 L127.573548,58.0344231 C127.585146,57.9764372 127.631534,57.9416457 127.68952,57.9416457 L128.872431,57.9416457 C128.953611,57.9416457 129,57.9764372 129,58.0344231 C129,58.0460202 128.988403,58.0692146 128.988403,58.0806484 L127.457577,65.1549207 Z" id="path"></path>
        </g>
    </g>
</svg>